<svg width="17" height="16" viewBox="0 0 17 16" fill="none" xmlns="http://www.w3.org/2000/svg">
<path d="M6.50008 6.66667C7.23646 6.66667 7.83342 6.06971 7.83342 5.33333C7.83342 4.59695 7.23646 4 6.50008 4C5.7637 4 5.16675 4.59695 5.16675 5.33333C5.16675 6.06971 5.7637 6.66667 6.50008 6.66667Z" stroke="#45AA61" stroke-width="1.5" stroke-linecap="round" stroke-linejoin="round"/>
<path d="M9.16659 1.3335H6.49992C3.16659 1.3335 1.83325 2.66683 1.83325 6.00016V10.0002C1.83325 13.3335 3.16659 14.6668 6.49992 14.6668H10.4999C13.8333 14.6668 15.1666 13.3335 15.1666 10.0002V6.66683" stroke="#45AA61" stroke-width="1.5" stroke-linecap="round" stroke-linejoin="round"/>
<path d="M11.1667 3.32686L12.1401 4.3002L14.7401 1.7002" stroke="#45AA61" stroke-width="1.5" stroke-linecap="round" stroke-linejoin="round"/>
<path d="M2.28003 12.6335L5.5667 10.4269C6.09336 10.0735 6.85336 10.1135 7.3267 10.5202L7.5467 10.7135C8.0667 11.1602 8.9067 11.1602 9.4267 10.7135L12.2 8.33354C12.72 7.88687 13.56 7.88687 14.08 8.33354L15.1667 9.26687" stroke="#45AA61" stroke-width="1.5" stroke-linecap="round" stroke-linejoin="round"/>
</svg>
